HIERARCHY
ROOT Hips
{
	OFFSET 0.00000 0.00000 0.00000
	CHANNELS 6 Xposition Yposition Zposition Zrotation Yrotation Xrotation 
	JOINT LHipJoint
	{
		OFFSET 0 0 0
		CHANNELS 3 Zrotation Yrotation Xrotation
		JOINT LeftUpLeg
		{
			OFFSET 1.53927 -1.56553 0.51726
			CHANNELS 3 Zrotation Yrotation Xrotation
			JOINT LeftLeg
			{
				OFFSET 2.38199 -6.54447 0.00000
				CHANNELS 3 Zrotation Yrotation Xrotation
				JOINT LeftFoot
				{
					OFFSET 2.35499 -6.47028 0.00000
					CHANNELS 3 Zrotation Yrotation Xrotation
					JOINT LeftToeBase
					{
						OFFSET 0.13641 -0.37478 1.84251
						CHANNELS 3 Zrotation Yrotation Xrotation
						End Site
						{
							OFFSET 0.00000 -0.00000 0.95212
						}
					}
				}
			}
		}
	}
	JOINT RHipJoint
	{
		OFFSET 0 0 0
		CHANNELS 3 Zrotation Yrotation Xrotation
		JOINT RightUpLeg
		{
			OFFSET -1.43919 -1.56553 0.51726
			CHANNELS 3 Zrotation Yrotation Xrotation
			JOINT RightLeg
			{
				OFFSET -2.34860 -6.45274 0.00000
				CHANNELS 3 Zrotation Yrotation Xrotation
				JOINT RightFoot
				{
					OFFSET -2.25563 -6.19730 0.00000
					CHANNELS 3 Zrotation Yrotation Xrotation
					JOINT RightToeBase
					{
						OFFSET -0.19755 -0.54277 1.84912
						CHANNELS 3 Zrotation Yrotation Xrotation
						End Site
						{
							OFFSET -0.00000 -0.00000 0.97032
						}
					}
				}
			}
		}
	}
	JOINT LowerBack
	{
		OFFSET 0 0 0
		CHANNELS 3 Zrotation Yrotation Xrotation
		JOINT Spine
		{
			OFFSET -0.06402 1.88434 -0.00445
			CHANNELS 3 Zrotation Yrotation Xrotation
			JOINT Spine1
			{
				OFFSET 0.00756 1.88511 0.04237
				CHANNELS 3 Zrotation Yrotation Xrotation
				JOINT Neck
				{
					OFFSET 0 0 0
					CHANNELS 3 Zrotation Yrotation Xrotation
					JOINT Neck1
					{
						OFFSET -0.06230 1.34710 0.03308
						CHANNELS 3 Zrotation Yrotation Xrotation
						JOINT Head
						{
							OFFSET -0.02442 1.34501 -0.13654
							CHANNELS 3 Zrotation Yrotation Xrotation
							End Site
							{
								OFFSET -0.00508 1.35584 -0.05075
							}
						}
					}
				}
				JOINT LeftShoulder
				{
					OFFSET 0 0 0
					CHANNELS 3 Zrotation Yrotation Xrotation
					JOINT LeftArm
					{
						OFFSET 2.76911 0.54460 0.39412
						CHANNELS 3 Zrotation Yrotation Xrotation
						JOINT LeftForeArm
						{
							OFFSET 4.40919 -0.00000 -0.00000
							CHANNELS 3 Zrotation Yrotation Xrotation
							JOINT LeftHand
							{
								OFFSET 3.03857 -0.00000 -0.00000
								CHANNELS 3 Zrotation Yrotation Xrotation
								JOINT LeftFingerBase
								{
									OFFSET 0 0 0
									CHANNELS 3 Zrotation Yrotation Xrotation
									JOINT LeftHandIndex1
									{
										OFFSET 0.52321 -0.00000 -0.00000
										CHANNELS 3 Zrotation Yrotation Xrotation
										End Site
										{
											OFFSET 0.42182 -0.00000 -0.00000
										}
									}
								}
								JOINT LThumb
								{
									OFFSET 0 0 0
									CHANNELS 3 Zrotation Yrotation Xrotation
									End Site
									{
										OFFSET 0.42826 -0.00000 0.42826
									}
								}
							}
						}
					}
				}
				JOINT RightShoulder
				{
					OFFSET 0 0 0
					CHANNELS 3 Zrotation Yrotation Xrotation
					JOINT RightArm
					{
						OFFSET -2.99050 0.75949 0.48975
						CHANNELS 3 Zrotation Yrotation Xrotation
						JOINT RightForeArm
						{
							OFFSET -4.61969 -0.00000 -0.00000
							CHANNELS 3 Zrotation Yrotation Xrotation
							JOINT RightHand
							{
								OFFSET -3.09382 -0.00000 -0.00000
								CHANNELS 3 Zrotation Yrotation Xrotation
								JOINT RightFingerBase
								{
									OFFSET 0 0 0
									CHANNELS 3 Zrotation Yrotation Xrotation
									JOINT RightHandIndex1
									{
										OFFSET -0.50090 -0.00000 -0.00000
										CHANNELS 3 Zrotation Yrotation Xrotation
										End Site
										{
											OFFSET -0.40384 -0.00000 -0.00000
										}
									}
								}
								JOINT RThumb
								{
									OFFSET 0 0 0
									CHANNELS 3 Zrotation Yrotation Xrotation
									End Site
									{
										OFFSET -0.41000 -0.00000 0.41000
									}
								}
							}
						}
					}
				}
			}
		}
	}
}
MOTION
Frames: 11
Frame Time: 0.181818
0.00 0.00 0.00 0 0 0 0 0 0 -21 0 0 0 0 0 0 0 0 0 0 0 0 0 0 21 0 0 0 0 0 0 0 0 0 0 0 0 0 0 0 0 0 0 0 0 0 0 -16 0 0 21 0 0 11 0 0 0 -8 0 0 0 0 0 0 0 0 0 0 0 0 0 0 0 0 0 0 0 0 8 0 0 0 0 0 0 0 0 0 0 0 0 0 0 0 0 0
0.00 0.00 0.00 3.6276 -64.1546 5.7771 0.0000 0.0000 0.0000 -10.5521 -20.4300 -12.9545 1.8226 8.4864 24.2016 0.4587 2.2367 -13.8053 0.8934 6.0243 16.8550 0.0000 0.0000 0.0000 26.7910 5.7567 -5.1833 -0.5776 -4.8669 13.5294 -0.5254 -18.4938 -30.1024 -2.2239 -9.3177 26.7942 -0.9904 1.5040 -4.1149 -0.5611 1.9282 -5.1279 0.0062 0.9510 -2.9846 8.0188 11.8654 2.9706 -12.0705 17.1469 12.1793 -4.2135 8.2723 4.9104 0.0000 0.0000 0.0000 -93.0336 19.2539 10.4600 20.2398 -30.9301 -5.6541 -0.0000 -0.0000 16.4370 24.3195 -10.2227 -4.5856 -7.1250 0.0000 -0.0000 -1.9156 18.7892 1.1972 0.0000 0.0000 0.0000 89.3653 -14.0599 10.1547 -14.8820 23.9814 -3.1778 0.0000 0.0000 9.3574 -14.9214 -46.6372 10.9644 7.1250 -0.0000 -0.0000 43.5789 -73.7748 -31.0974
0.00 0.00 0.00 -10.1359 -87.1653 18.0873 0.0000 0.0000 0.0000 -23.9254 -5.6624 -5.0259 0.5161 4.6046 12.7841 -1.6607 30.6274 -34.4678 5.0141 13.3997 40.8837 0.0000 0.0000 0.0000 14.4442 18.4462 0.3344 -0.4669 -4.3830 12.1566 1.3959 -22.7137 -19.5396 -0.5575 -4.7828 13.2901 -4.6752 -1.2173 -5.9024 1.6134 -1.5513 -4.9016 4.2253 -0.6872 -1.5998 -8.0207 -11.7465 2.3701 4.2886 -16.7170 13.6128 1.8541 -8.5764 4.7600 0.0000 -0.0000 0.0000 -91.5597 23.3324 14.2737 44.5959 -50.5690 -21.9262 -0.0000 -0.0000 6.0002 24.1579 -10.3784 -4.6196 -7.1250 0.0000 -0.0000 -2.0371 18.6341 1.2802 0.0000 -0.0000 0.0000 85.4210 -24.9357 25.1700 -32.9448 43.2876 -13.3842 0.0000 0.0000 2.6567 -16.9045 -43.2229 11.7570 7.1250 -0.0000 -0.0000 33.2779 -72.0550 -22.1040
0.00 0.00 0.00 -179.6810 -70.2523 187.5300 0.0000 0.0000 0.0000 -21.2328 1.4934 -7.8671 1.0478 6.5094 18.2699 2.4260 29.7762 -50.6833 7.1840 15.4849 49.5668 0.0000 0.0000 0.0000 17.6011 23.1186 0.4464 -0.1335 -2.3554 6.4889 0.4686 -13.8693 -12.5154 -0.5153 -4.6008 12.7735 -5.1149 -2.3340 -6.0572 1.5292 -3.0687 -5.0273 4.3011 -1.4619 -1.4705 -8.2350 -11.9154 3.5091 3.0844 -17.2100 14.7929 1.5353 -8.9920 4.8906 0.0000 0.0000 0.0000 -93.0161 20.6817 16.5040 36.1245 -45.5986 -15.6114 -0.0000 -0.0000 7.6648 21.7486 -10.3793 -4.1110 -7.1250 0.0000 -0.0000 -3.7426 18.8375 2.3387 0.0000 0.0000 0.0000 85.4231 -22.9944 27.4834 -32.3985 42.8626 -13.0111 0.0000 0.0000 3.3120 -18.6296 -45.5974 13.5416 7.1250 -0.0000 -0.0000 36.9576 -74.4514 -26.5385
0.00 0.00 0.00 -180.9310 -62.6800 187.9330 0.0000 0.0000 0.0000 -17.1343 5.3776 -11.1962 2.4450 9.7373 28.1301 -2.9863 32.9903 -30.7421 3.7897 11.8752 35.2918 0.0000 0.0000 0.0000 20.7059 29.2961 6.5082 0.0000 0.0000 -0.0000 0.5603 -13.4908 -8.3559 -0.8440 -5.8599 16.3785 -5.1973 -3.3932 -5.4477 1.2902 -4.4888 -4.6208 4.0320 -2.1842 -1.2401 -6.1971 -11.5930 2.3417 0.2161 -16.4358 15.7016 0.3655 -8.6695 4.9068 0.0000 0.0000 0.0000 -93.4812 20.7482 15.9384 34.5218 -44.4677 -14.4774 -0.0000 -0.0000 8.3601 21.8089 -11.3817 -4.5151 -7.1250 0.0000 -0.0000 -3.7311 17.7619 2.4202 0.0000 0.0000 0.0000 85.8057 -21.9374 27.3613 -30.5147 41.3305 -11.7480 0.0000 0.0000 3.4202 -19.3518 -41.7816 13.1707 7.1250 -0.0000 -0.0000 27.5773 -71.7451 -17.9534
0.00 0.00 0.00 -197.3590 -80.4068 202.7020 0.0000 0.0000 0.0000 -15.1555 -11.1037 -4.0715 1.0214 6.4294 18.0356 -1.8266 23.4911 -13.8151 0.2595 3.2773 9.0516 0.0000 0.0000 0.0000 21.6172 10.3832 4.6478 -0.0265 -1.0513 2.8898 0.0820 -10.9970 -14.3736 -1.4118 -7.5151 21.2506 -4.4538 0.3959 -6.9471 -0.0400 0.5581 -5.3630 2.4881 0.3234 -1.7053 5.5797 8.7288 0.2780 -5.4829 12.0369 16.6130 -2.0044 5.7271 5.6469 -0.0000 -0.0000 0.0000 -92.6944 27.9296 22.2832 78.3727 -59.4829 -49.9480 -0.0000 0.0000 -23.9819 26.5787 3.9343 1.9660 -7.1250 0.0000 -0.0000 -0.0445 34.3772 0.0116 -0.0000 -0.0000 0.0000 87.1638 -20.3181 29.6241 -48.1643 52.2278 -24.7155 0.0000 -0.0000 -8.7618 -18.6601 -45.6215 13.5699 7.1250 -0.0000 -0.0000 36.9883 -74.4800 -26.5832
0.00 0.00 0.00 -196.2430 -79.3762 201.1880 0.0000 0.0000 0.0000 -15.5614 -10.7972 -3.6487 0.9992 6.3613 17.8363 -1.9314 24.1125 -14.2610 0.3154 3.6099 9.9818 0.0000 0.0000 0.0000 21.3659 11.3394 5.0578 -0.0241 -1.0022 2.7550 0.1212 -11.2393 -14.0949 -1.4070 -7.5028 21.2139 -4.0340 0.7906 -7.5111 -0.2485 1.1226 -4.7920 2.0811 0.5742 -0.8257 6.2514 9.6950 -0.6199 -3.6576 13.0267 22.0075 -1.3289 6.2046 7.5322 -0.0000 -0.0000 0.0000 -91.2046 27.2556 24.2236 100.4658 -59.5820 -69.0509 -0.0000 0.0000 -39.3767 35.2000 12.8937 8.9456 -7.1250 0.0000 -0.0000 7.4254 45.4975 0.0917 -0.0000 -0.0000 0.0000 88.2817 -13.6741 34.5756 -53.2584 54.2280 -28.7976 0.0000 -0.0000 -15.6008 -20.5930 -48.2173 15.6517 7.1250 -0.0000 -0.0000 42.9734 -76.9637 -33.2758
0.00 0.00 0.00 -191.9180 -78.0962 196.8110 0.0000 0.0000 0.0000 -15.2368 -10.5916 -3.5857 0.9975 6.3559 17.8207 -2.0740 24.9910 -15.2416 0.4267 4.1922 11.6180 0.0000 0.0000 0.0000 21.6910 12.4184 6.3082 -0.0008 -0.1834 0.5040 0.2358 -11.6860 -12.7456 -1.6728 -8.1485 23.1660 -3.5360 0.8240 -7.3505 -0.1120 1.1106 -5.0719 1.9366 0.5633 -1.1942 6.1681 9.7331 -1.7552 -2.1897 12.6089 28.2704 -0.7163 5.8839 9.7907 0.0000 -0.0000 0.0000 -90.9665 26.3689 25.8309 119.0231 -56.5647 -84.8449 -0.0000 0.0000 -48.5315 51.2875 33.3258 34.4289 -7.1250 0.0000 -0.0000 36.4831 73.7203 25.6370 0.0000 -0.0000 0.0000 90.0801 -9.3865 41.0443 -66.9322 57.8907 -40.1642 0.0000 -0.0000 -27.8439 -21.3745 -56.0749 17.9915 7.1250 -0.0000 -0.0000 80.6712 -79.7974 -70.2987
0.00 0.00 0.00 -190.4070 -77.4436 195.3470 0.0000 0.0000 0.0000 -15.2389 -10.4028 -3.8623 1.0422 6.4926 18.2206 -2.1370 25.3885 -15.7735 0.5036 4.5493 12.6274 0.0000 0.0000 0.0000 21.7582 13.1192 6.4854 0.0000 0.0000 -0.0000 0.3283 -12.2658 -11.9485 -1.2443 -7.0728 19.9312 -3.6735 0.5553 -8.0747 0.0117 0.8076 -4.7213 2.1350 0.4017 -0.4176 4.4105 7.5786 -2.4114 -1.8532 9.4527 30.7177 -0.6025 4.1289 10.5370 0.0000 0.0000 0.0000 -91.4903 24.7957 28.0284 131.5083 -52.3688 -95.0254 -0.0000 0.0000 -51.8508 50.1523 25.5167 27.3008 -7.1250 0.0000 -0.0000 28.1658 64.5283 13.8331 0.0000 0.0000 0.0000 90.6344 -7.9124 46.1484 -89.7800 59.9998 -59.8095 0.0000 -0.0000 -37.8410 -25.3087 -55.7633 21.3527 7.1250 -0.0000 -0.0000 81.3295 -81.2995 -72.5313
0.00 0.00 0.00 -190.8460 -77.0000 195.3590 0.0000 0.0000 0.0000 -15.7539 -10.3886 -3.0450 0.9702 6.2710 17.5728 -2.1135 25.5705 -17.2428 0.7956 5.6935 15.8977 0.0000 0.0000 0.0000 21.4388 13.4980 6.6476 -0.0005 -0.1514 0.4160 0.3220 -12.2523 -12.0624 -1.2506 -7.0902 19.9828 -4.2694 0.2132 -8.1036 -0.1071 0.4170 -4.3917 2.3195 0.2092 -0.0419 1.3762 3.2381 -3.0363 -3.0647 3.7044 32.2225 -1.1159 0.8735 10.9537 0.0000 0.0000 0.0000 -91.8837 22.8782 30.0362 140.4825 -47.7814 -101.9189 -0.0000 0.0000 -54.9936 50.6336 21.4600 24.0334 -7.1250 0.0000 -0.0000 26.8016 59.7141 10.0640 0.0000 0.0000 0.0000 90.5875 -7.8678 47.4865 -109.5042 58.5126 -76.8068 0.0000 -0.0000 -51.0773 -27.4757 -58.1571 23.8341 7.1250 -0.0000 -0.0000 90.9411 81.5141 99.5309
0.00 0.00 0.00 -208.6250 -83.8890 215.3290 0.0000 0.0000 0.0000 -15.8072 -15.2404 -3.5622 0.7151 5.4043 15.0654 -1.9381 24.0100 -13.3241 0.3130 3.5968 9.9451 0.0000 0.0000 0.0000 20.2494 6.6339 3.4857 0.0000 -0.0000 0.0000 0.1286 -10.9438 -13.4791 -1.5103 -7.7614 21.9917 -3.8543 0.7802 -7.4261 0.2415 1.0419 -5.7216 2.4717 0.5565 -1.8416 6.6544 11.6258 6.8265 -7.3268 15.8835 0.0340 -3.6649 8.0469 0.0479 -0.0000 0.0000 0.0000 -89.1600 21.6322 28.9988 39.8969 -48.0087 -18.3626 -0.0000 0.0000 -20.1127 36.3266 12.6805 9.1688 -7.1250 0.0000 -0.0000 8.5014 45.4108 0.0868 -0.0000 0.0000 0.0000 89.0716 -19.4068 25.4239 -31.2679 41.9556 -12.2485 0.0000 -0.0000 -15.3914 -22.3190 -55.2334 18.6357 7.1250 -0.0000 -0.0000 76.2575 -80.1667 -66.3759
